<?xml version="1.0" encoding="UTF-8"?>
<svg version="1.1" xmlns="http://www.w3.org/2000/svg" width="1920" height="960">
<path d="M0 0 C132.66 0 265.32 0 402 0 C402 132.66 402 265.32 402 402 C269.34 402 136.68 402 0 402 C0 269.34 0 136.68 0 0 Z " fill="#FFBA00" transform="translate(974,430)"/>
<path d="M0 0 C132.66 0 265.32 0 402 0 C402 132.66 402 265.32 402 402 C269.34 402 136.68 402 0 402 C0 269.34 0 136.68 0 0 Z " fill="#00A3F4" transform="translate(544,430)"/>
<path d="M0 0 C132.66 0 265.32 0 402 0 C402 132.33 402 264.66 402 401 C269.34 401 136.68 401 0 401 C0 268.67 0 136.34 0 0 Z " fill="#7EBA00" transform="translate(974,0)"/>
<path d="M0 0 C132.66 0 265.32 0 402 0 C402 132.33 402 264.66 402 401 C269.34 401 136.68 401 0 401 C0 268.67 0 136.34 0 0 Z " fill="#F8510C" transform="translate(544,0)"/>
<path d="M0 0 C132.66 0 265.32 0 402 0 C402 132.33 402 264.66 402 401 C269.34 401 136.68 401 0 401 C0 268.67 0 136.34 0 0 Z M13 11 C13 135.74 13 260.48 13 389 C137.74 389 262.48 389 391 389 C391 264.26 391 139.52 391 11 C266.26 11 141.52 11 13 11 Z " fill="#FAFCF7" transform="translate(974,0)"/>
<path d="M0 0 C132.66 0 265.32 0 402 0 C402 132.33 402 264.66 402 401 C269.34 401 136.68 401 0 401 C0 268.67 0 136.34 0 0 Z M11 11 C11 135.74 11 260.48 11 389 C135.74 389 260.48 389 389 389 C389 264.26 389 139.52 389 11 C264.26 11 139.52 11 11 11 Z " fill="#FEF9F7" transform="translate(544,0)"/>
<path d="M0 0 C132.66 0 265.32 0 402 0 C402 132.66 402 265.32 402 402 C269.34 402 136.68 402 0 402 C0 269.34 0 136.68 0 0 Z M12 13 C11.90217743 15.00684058 11.87628753 17.0171907 11.87695217 19.02641392 C11.8749613 20.34554468 11.87297043 21.66467545 11.87091923 23.02377987 C11.87377186 24.50605219 11.87671726 25.98832434 11.87974548 27.47059631 C11.8793085 29.02685056 11.87843239 30.58310474 11.87715149 32.13935852 C11.87489627 36.44511665 11.87893854 40.75085017 11.88392727 45.05660518 C11.88827443 49.76009256 11.88683395 54.46357869 11.88610935 59.16706753 C11.88557631 68.30947852 11.89020705 77.45187975 11.89661068 86.59428823 C11.9037925 97.162754 11.90460443 107.73121386 11.90539551 118.29968262 C11.91065227 146.2206233 11.92461329 174.1415618 11.9375 202.0625 C11.958125 264.411875 11.97875 326.76125 12 391 C137.07 391 262.14 391 391 391 C391 265.93 391 140.86 391 12 C328.650625 11.979375 266.30125 11.95875 202.0625 11.9375 C182.33734619 11.928396 162.61219238 11.91929199 142.28930664 11.90991211 C124.68859109 11.90656876 124.68859109 11.90656876 107.08787537 11.90455627 C99.21624964 11.90362036 91.34463093 11.89993797 83.4730072 11.89442444 C74.40666332 11.88808342 65.34032622 11.88515832 56.27398011 11.88655505 C51.63078411 11.88716053 46.98760331 11.88616456 42.34441006 11.88078487 C38.15404005 11.87595904 33.96369612 11.87564994 29.77332497 11.87909889 C28.25062473 11.87952646 26.72792294 11.87822823 25.20522583 11.87511742 C23.14562558 11.87115372 21.08601563 11.87384376 19.02641392 11.87695217 C17.30457208 11.87638259 17.30457208 11.87638259 15.54794556 11.8758015 C13.06521205 11.71084079 13.06521205 11.71084079 12 13 Z " fill="#FFFEFC" transform="translate(974,430)"/>
<path d="M0 0 C132.66 0 265.32 0 402 0 C402 132.66 402 265.32 402 402 C269.34 402 136.68 402 0 402 C0 269.34 0 136.68 0 0 Z M11 12 C11 137.07 11 262.14 11 391 C136.07 391 261.14 391 390 391 C390.020625 328.650625 390.04125 266.30125 390.0625 202.0625 C390.07615601 172.47476929 390.07615601 172.47476929 390.09008789 142.28930664 C390.09343124 124.68859109 390.09343124 124.68859109 390.09544373 107.08787537 C390.09637964 99.21624964 390.10006203 91.34463093 390.10557556 83.4730072 C390.11191658 74.40666332 390.11484168 65.34032622 390.11344495 56.27398011 C390.11283947 51.63078411 390.11383544 46.98760331 390.11921513 42.34441006 C390.12404096 38.15404005 390.12435006 33.96369612 390.12090111 29.77332497 C390.12047354 28.25062473 390.12177177 26.72792294 390.12488258 25.20522583 C390.12884628 23.14562558 390.12615624 21.08601563 390.12304783 19.02641392 C390.12342755 17.87851936 390.12380727 16.7306248 390.1241985 15.54794556 C390.28915921 13.06521205 390.28915921 13.06521205 389 12 C386.99315942 11.90217743 384.9828093 11.87628753 382.97358608 11.87695217 C381.65445532 11.8749613 380.33532455 11.87297043 378.97622013 11.87091923 C377.49394781 11.87377186 376.01167566 11.87671726 374.52940369 11.87974548 C372.97314944 11.8793085 371.41689526 11.87843239 369.86064148 11.87715149 C365.55488335 11.87489627 361.24914983 11.87893854 356.94339482 11.88392727 C352.23990744 11.88827443 347.53642131 11.88683395 342.83293247 11.88610935 C333.69052148 11.88557631 324.54812025 11.89020705 315.40571177 11.89661068 C304.837246 11.9037925 294.26878614 11.90460443 283.70031738 11.90539551 C255.7793767 11.91065227 227.8584382 11.92461329 199.9375 11.9375 C137.588125 11.958125 75.23875 11.97875 11 12 Z " fill="#FCFEFE" transform="translate(544,430)"/>
<path d="M0 0 C4.62 0 9.24 0 14 0 C14.33 1.32 14.66 2.64 15 4 C15.66 4 16.32 4 17 4 C17.67467562 5.74692795 18.33944156 7.49768525 19 9.25 C19.556875 10.71179688 19.556875 10.71179688 20.125 12.203125 C21 15 21 15 21 19 C21.66 19 22.32 19 23 19 C23.67031719 20.9570868 24.33614683 22.91571113 25 24.875 C25.556875 26.51082031 25.556875 26.51082031 26.125 28.1796875 C27 31 27 31 27 33 C27.66 33 28.32 33 29 33 C29.67220351 34.93558599 30.33758077 36.87354372 31 38.8125 C31.37125 39.89144531 31.7425 40.97039063 32.125 42.08203125 C33 45 33 45 33 48 C33.66 48 34.32 48 35 48 C35.67220351 49.93558599 36.33758077 51.87354372 37 53.8125 C37.37125 54.89144531 37.7425 55.97039063 38.125 57.08203125 C39 60 39 60 39 63 C39.66 63 40.32 63 41 63 C41.50367757 64.45706726 42.00282556 65.91570096 42.5 67.375 C42.7784375 68.18710937 43.056875 68.99921875 43.34375 69.8359375 C44 72 44 72 44 74 C44.99 74 45.98 74 47 74 C47.103125 73.175 47.20625 72.35 47.3125 71.5 C48.11646056 67.40710988 49.46352158 63.87459775 51 60 C51.66 60 52.32 60 53 60 C53.1546875 58.824375 53.1546875 58.824375 53.3125 57.625 C54.19579954 52.9676024 55.58028758 48.51807851 57 44 C57.66 44 58.32 44 59 44 C59.433125 42.205625 59.433125 42.205625 59.875 40.375 C60.7524334 36.85273164 61.80020637 33.42798179 63 30 C63.66 30 64.32 30 65 30 C65.18175781 29.12988281 65.18175781 29.12988281 65.3671875 28.2421875 C66.33735474 23.71971558 67.43397783 19.36249034 69 15 C69.66 15 70.32 15 71 15 C71.103125 14.175 71.20625 13.35 71.3125 12.5 C72.09807467 8.50071076 73.1747109 4.65931164 75 1 C79.77958622 -1.38979311 85.65626015 0 91 0 C91 31.02 91 62.04 91 94 C87.04 94 83.08 94 79 94 C78.67 73.21 78.34 52.42 78 31 C77.67 31.66 77.34 32.32 77 33 C76.34 33 75.68 33 75 33 C74.896875 33.804375 74.79375 34.60875 74.6875 35.4375 C73.84899627 39.78247386 72.47178341 43.83457527 71 48 C70.34 48 69.68 48 69 48 C68.81824219 48.87011719 68.81824219 48.87011719 68.6328125 49.7578125 C67.66264526 54.28028442 66.56602217 58.63750966 65 63 C64.34 63 63.68 63 63 63 C62.90203125 63.556875 62.8040625 64.11375 62.703125 64.6875 C61.75776932 69.51207382 60.41295768 73.42542055 58.0859375 77.73828125 C55.89761289 82.29597891 54.50915409 87.18355077 53 92 C52.34 92 51.68 92 51 92 C51 92.66 51 93.32 51 94 C47.04 94 43.08 94 39 94 C35 84.375 35 84.375 35 81 C34.34 81 33.68 81 33 81 C32.32968281 79.0429132 31.66385317 77.08428887 31 75.125 C30.62875 74.03445313 30.2575 72.94390625 29.875 71.8203125 C29 69 29 69 29 67 C28.34 67 27.68 67 27 67 C26.32586789 65.08594633 25.6609668 63.16863974 25 61.25 C24.62875 60.18265625 24.2575 59.1153125 23.875 58.015625 C23 55 23 55 23 51 C22.34 51 21.68 51 21 51 C20.32739649 49.23141309 19.66211605 47.46003984 19 45.6875 C18.62875 44.70136719 18.2575 43.71523438 17.875 42.69921875 C17 40 17 40 17 37 C16.34 37 15.68 37 15 37 C14.34 35.02 13.68 33.04 13 31 C12.67 51.79 12.34 72.58 12 94 C8.04 94 4.08 94 0 94 C0 62.98 0 31.96 0 0 Z " fill="#7F7F7F" transform="translate(713,865)"/>
<path d="M0 0 C0 0.66 0 1.32 0 2 C1.051875 2.103125 2.10375 2.20625 3.1875 2.3125 C9.32871059 3.41993142 12.95850558 6.3031281 17 11 C18.3125 14.3125 18.3125 14.3125 19 17 C19.66 17 20.32 17 21 17 C25.31159854 30.55073825 25.31159854 43.44926175 21 57 C20.34 57 19.68 57 19 57 C18.835 57.845625 18.67 58.69125 18.5 59.5625 C16.04545914 65.18748946 12.0548184 68.68947368 6.4140625 71.109375 C-4.11345741 74.30684523 -14.49327241 74.02098067 -24.5 69.375 C-25.7375 68.694375 -25.7375 68.694375 -27 68 C-27 67.34 -27 66.68 -27 66 C-27.928125 65.9071875 -27.928125 65.9071875 -28.875 65.8125 C-31 65 -31 65 -32.25 62.4375 C-32.4975 61.633125 -32.745 60.82875 -33 60 C-33.66 60 -34.32 60 -35 60 C-37.86964374 53.74827614 -39.51137226 48.90352555 -39 42 C-39.66 42 -40.32 42 -41 42 C-41 38.7 -41 35.4 -41 32 C-40.34 32 -39.68 32 -39 32 C-39.061875 30.865625 -39.12375 29.73125 -39.1875 28.5625 C-39.1875 23.80859189 -38.24487748 19.22184778 -36 15 C-35.01 14.67 -34.02 14.34 -33 14 C-32.64587656 12.67203709 -32.31478446 11.33783393 -32 10 C-23.32747275 -0.32443721 -12.42469574 -0.54882092 0 0 Z M-15 12 C-15 12.66 -15 13.32 -15 14 C-15.556875 14.061875 -16.11375 14.12375 -16.6875 14.1875 C-20.63773429 15.57542016 -22.96000528 18.13048569 -24.984375 21.76953125 C-28.95169657 31.5568387 -28.33679464 44.24077069 -24.27734375 53.84765625 C-22.30238346 57.17549454 -20.52425469 58.42533301 -17 60 C-16.01 60 -15.02 60 -14 60 C-14 60.66 -14 61.32 -14 62 C-10.04 62 -6.08 62 -2 62 C-2 61.34 -2 60.68 -2 60 C-1.071875 59.7525 -0.14375 59.505 0.8125 59.25 C4.17785609 57.93025251 5.25915221 57.09484051 7 54 C7 53.34 7 52.68 7 52 C7.66 52 8.32 52 9 52 C12.74127924 42.77151122 12.44911559 33.51129136 10 24 C9.505 23.01 9.505 23.01 9 22 C8.34 22 7.68 22 7 22 C6.7525 21.236875 6.505 20.47375 6.25 19.6875 C4.87869328 16.73919055 3.7648921 15.64165468 1 14 C0.34 14 -0.32 14 -1 14 C-1 13.34 -1 12.68 -1 12 C-2.58226965 11.80372609 -4.16589271 11.61834462 -5.75 11.4375 C-7.07257813 11.28087891 -7.07257813 11.28087891 -8.421875 11.12109375 C-10.88432451 11.00543324 -12.66538064 11.26361305 -15 12 Z " fill="#808080" transform="translate(1147,887)"/>
<path d="M0 0 C5.61 0 11.22 0 17 0 C17 0.66 17 1.32 17 2 C18.051875 2.103125 19.10375 2.20625 20.1875 2.3125 C26.25334515 3.40634093 29.40476167 6.04932272 33.1875 10.8125 C33.86167969 11.64394531 34.53585937 12.47539063 35.23046875 13.33203125 C38.13818277 17.71606806 39.30828522 21.75915122 39 27 C39.66 27 40.32 27 41 27 C41 33.27 41 39.54 41 46 C40.34 46 39.68 46 39 46 C38.9175 47.155 38.835 48.31 38.75 49.5 C37.65434647 57.68856848 33.85612631 63.04804698 27.55078125 68.30078125 C19.71274133 73.52214016 9.85279153 74.06704366 0.7421875 72.6484375 C-6.188183 71.0937156 -11.44121624 68.47054052 -16 63 C-21.55715819 53.92240907 -23.18058943 47.75406622 -23.1875 37.25 C-23.19974609 36.28578125 -23.21199219 35.3215625 -23.22460938 34.328125 C-23.23643439 28.52598233 -22.66717019 23.56162705 -21 18 C-20.34 18 -19.68 18 -19 18 C-18.773125 17.13375 -18.54625 16.2675 -18.3125 15.375 C-15.75402289 8.79605887 -12.12983636 5.66720742 -5.96484375 2.6640625 C-4 2 -4 2 0 2 C0 1.34 0 0.68 0 0 Z M1 12 C0.67 12.66 0.34 13.32 0 14 C-1.2065625 14.61875 -1.2065625 14.61875 -2.4375 15.25 C-5.66833631 17.4564248 -6.0900106 19.27731611 -7 23 C-7.66 23 -8.32 23 -9 23 C-12.33114213 31.7442481 -12.33114213 42.2557519 -9 51 C-8.34 51 -7.68 51 -7 51 C-6.773125 51.928125 -6.54625 52.85625 -6.3125 53.8125 C-4.77590296 57.54423567 -3.63695275 58.40328904 0 60 C0.99 60 1.98 60 3 60 C3 60.66 3 61.32 3 62 C6.63 62 10.26 62 14 62 C14 61.34 14 60.68 14 60 C14.721875 59.938125 15.44375 59.87625 16.1875 59.8125 C19.99186783 58.7134604 21.4888529 57.03980964 24 54 C26.38312871 49.48027314 27.37350307 46.10454191 27 41 C27.66 41 28.32 41 29 41 C29 38.36 29 35.72 29 33 C28.34 33 27.68 33 27 33 C26.94392578 32.02160156 26.94392578 32.02160156 26.88671875 31.0234375 C26.3945096 23.52391546 26.3945096 23.52391546 23 17 C15.79616484 11.98159798 9.71998105 9.50857684 1 12 Z " fill="#808080" transform="translate(989,887)"/>
<path d="M0 0 C5.61 0 11.22 0 17 0 C17 0.66 17 1.32 17 2 C18.093125 2.103125 19.18625 2.20625 20.3125 2.3125 C24 3 24 3 25.9375 4.4375 C27 6 27 6 27 8 C27.928125 8.3403125 27.928125 8.3403125 28.875 8.6875 C31.65659901 10.40554645 32.09559541 11.90995099 33 15 C33 15.99 33 16.98 33 18 C32.34 18 31.68 18 31 18 C31 18.66 31 19.32 31 20 C23.52258065 21.3483871 23.52258065 21.3483871 21.3125 19.875 C20.879375 19.25625 20.44625 18.6375 20 18 C15.86456909 13.35932306 15.86456909 13.35932306 10.1796875 11.90234375 C8.54386719 11.91974609 8.54386719 11.91974609 6.875 11.9375 C5.77929688 11.94652344 4.68359375 11.95554687 3.5546875 11.96484375 C2.29011719 11.98224609 2.29011719 11.98224609 1 12 C1 12.66 1 13.32 1 14 C-1.5 15.625 -1.5 15.625 -4 17 C-3.67 19.97 -3.34 22.94 -3 26 C1.95 27.32 6.9 28.64 12 30 C12 30.66 12 31.32 12 32 C12.8353125 32.03867187 12.8353125 32.03867187 13.6875 32.078125 C20.87385965 32.61224633 26.39239286 34.32720268 31.5 39.5625 C33 42 33 42 33 45 C33.66 45 34.32 45 35 45 C35 49.29 35 53.58 35 58 C34.34 58 33.68 58 33 58 C32.814375 59.1446875 32.814375 59.1446875 32.625 60.3125 C32 63 32 63 30 66 C29.01 66 28.02 66 27 66 C26.78085938 66.62390625 26.56171875 67.2478125 26.3359375 67.890625 C24.48970916 70.80572238 22.94322745 70.96616675 19.625 71.75 C8.03583054 74.29294726 -2.49757123 73.77633582 -13 68 C-13 67.34 -13 66.68 -13 66 C-13.61875 65.773125 -14.2375 65.54625 -14.875 65.3125 C-17.71423268 63.55885629 -18.12962687 62.19136813 -19 59 C-19.125 55.6875 -19.125 55.6875 -19 53 C-17.40119187 52.58305004 -15.79558739 52.19209144 -14.1875 51.8125 C-13.29417969 51.59207031 -12.40085937 51.37164063 -11.48046875 51.14453125 C-9 51 -9 51 -7.23046875 52.3203125 C-6 54 -6 54 -5.125 56.0625 C-3.58670984 58.71177751 -1.84888077 59.10035344 1 60 C1 60.66 1 61.32 1 62 C5.29 62 9.58 62 14 62 C14 61.34 14 60.68 14 60 C15.98 59.34 17.96 58.68 20 58 C20.33 56.35 20.66 54.7 21 53 C21.66 53 22.32 53 23 53 C23 52.34 23 51.68 23 51 C22.34 51 21.68 51 21 51 C20.58234375 50.21753906 20.1646875 49.43507813 19.734375 48.62890625 C17.52952674 45.28687273 16.07115687 44.95932677 12.25 43.9375 C11.10015625 43.61523438 9.9503125 43.29296875 8.765625 42.9609375 C6.17475498 42.29978187 3.58497855 41.6584333 0.984375 41.0390625 C0.32018555 40.87543213 -0.34400391 40.71180176 -1.02832031 40.54321289 C-2.91026441 40.08437833 -4.79879549 39.6528167 -6.6875 39.22265625 C-11.23880189 37.54275355 -13.91131431 35.10305836 -16.14453125 30.7890625 C-18.32501447 23.72480692 -18.90871536 17.82498644 -16.046875 10.859375 C-13.44786919 6.24323036 -9.03538547 3.45761158 -4 2 C-2.68 2 -1.36 2 0 2 C0 1.34 0 0.68 0 0 Z " fill="#808080" transform="translate(1061,887)"/>
<path d="M0 0 C5.28 0 10.56 0 16 0 C16 0.66 16 1.32 16 2 C16.86625 2.103125 17.7325 2.20625 18.625 2.3125 C22.16683123 3.03398414 24.84312042 4.27123261 28 6 C28 6.66 28 7.32 28 8 C28.61875 8.2475 29.2375 8.495 29.875 8.75 C32.39525827 10.23250486 33.01231659 11.28387064 34 14 C34 14.99 34 15.98 34 17 C34.66 17 35.32 17 36 17 C36 18.98 36 20.96 36 23 C32.04 23 28.08 23 24 23 C24 22.34 24 21.68 24 21 C23.01 20.67 22.02 20.34 21 20 C19.5 17.5 19.5 17.5 18 15 C17.01 14.67 16.02 14.34 15 14 C15 13.34 15 12.68 15 12 C10.38 12 5.76 12 1 12 C0.67 12.99 0.34 13.98 0 15 C-1.64821244 16.03013277 -3.31503702 17.03114628 -5 18 C-5.33 18.66 -5.66 19.32 -6 20 C-6.66 20 -7.32 20 -8 20 C-9.60154139 25.6435268 -10.31397378 30.64639937 -10.25 36.5 C-10.25773438 37.20769531 -10.26546875 37.91539062 -10.2734375 38.64453125 C-10.25487843 43.72043696 -9.3855165 48.11770376 -8 53 C-7.34 53 -6.68 53 -6 53 C-5.814375 53.598125 -5.62875 54.19625 -5.4375 54.8125 C-3.27726247 58.09981799 -0.64892345 58.64854687 3 60 C3 60.66 3 61.32 3 62 C6.63 62 10.26 62 14 62 C14 61.34 14 60.68 14 60 C14.94875 59.79375 15.8975 59.5875 16.875 59.375 C20.29166667 58.29166667 20.29166667 58.29166667 21.375 54.875 C21.58125 53.92625 21.7875 52.9775 22 52 C22.66 52 23.32 52 24 52 C24 51.34 24 50.68 24 50 C27.96 50 31.92 50 36 50 C36 52.31 36 54.62 36 57 C35.34 57 34.68 57 34 57 C33.71125 57.928125 33.4225 58.85625 33.125 59.8125 C32 63 32 63 30 66 C29.01 66 28.02 66 27 66 C26.77183594 66.62390625 26.54367187 67.2478125 26.30859375 67.890625 C24.12527995 71.4099965 20.9201217 71.54676152 17.0625 72.4609375 C8.40446601 73.98492818 -0.83989187 73.51028729 -9 70 C-10.21875 67.91796875 -10.21875 67.91796875 -11 66 C-11.9590625 65.7834375 -11.9590625 65.7834375 -12.9375 65.5625 C-15 65 -15 65 -16.75 62.5625 C-18 60 -18 60 -18 58 C-18.66 58 -19.32 58 -20 58 C-25.53287053 44.52866307 -24.83030367 31.25985079 -21 17.375 C-20 15 -20 15 -18 14 C-17.525625 13.175 -17.05125 12.35 -16.5625 11.5 C-15 9 -15 9 -12 8 C-11.67 7.01 -11.34 6.02 -11 5 C-7.02436956 2.97467883 -4.4949298 2 0 2 C0 1.34 0 0.68 0 0 Z " fill="#808080" transform="translate(874,887)"/>
<path d="M0 0 C1.79824219 0.00966797 1.79824219 0.00966797 3.6328125 0.01953125 C6.24553278 0.15488905 8.39454118 0.41621305 10.875 1.1875 C10.875 2.5075 10.875 3.8275 10.875 5.1875 C10.215 5.1875 9.555 5.1875 8.875 5.1875 C8.545 7.4975 8.215 9.8075 7.875 12.1875 C7.03195312 12.24808594 6.18890625 12.30867187 5.3203125 12.37109375 C4.22460938 12.45488281 3.12890625 12.53867187 2 12.625 C0.36417969 12.74681641 0.36417969 12.74681641 -1.3046875 12.87109375 C-4.07228971 13.01751703 -4.07228971 13.01751703 -6.125 14.1875 C-6.77713292 16.21213255 -6.77713292 16.21213255 -7.125 18.1875 C-7.785 18.1875 -8.445 18.1875 -9.125 18.1875 C-9.125 21.4875 -9.125 24.7875 -9.125 28.1875 C-3.845 28.1875 1.435 28.1875 6.875 28.1875 C6.875 31.4875 6.875 34.7875 6.875 38.1875 C1.595 38.1875 -3.685 38.1875 -9.125 38.1875 C-9.125 57.9875 -9.125 77.7875 -9.125 98.1875 C-13.085 98.1875 -17.045 98.1875 -21.125 98.1875 C-21.125 78.3875 -21.125 58.5875 -21.125 38.1875 C-25.085 38.1875 -29.045 38.1875 -33.125 38.1875 C-33.125 34.8875 -33.125 31.5875 -33.125 28.1875 C-29.165 28.1875 -25.205 28.1875 -21.125 28.1875 C-21.125 22.9075 -21.125 17.6275 -21.125 12.1875 C-20.465 12.1875 -19.805 12.1875 -19.125 12.1875 C-19.021875 11.424375 -18.91875 10.66125 -18.8125 9.875 C-18.07788806 7.00333516 -17.4533935 5.95707906 -15.125 4.1875 C-14.465 4.1875 -13.805 4.1875 -13.125 4.1875 C-13.125 3.5275 -13.125 2.8675 -13.125 2.1875 C-8.59334234 0.43442754 -4.84837627 -0.0575941 0 0 Z " fill="#7F7F7F" transform="translate(1211.125,860.8125)"/>
<path d="M0 0 C3.96 0 7.92 0 12 0 C12 5.61 12 11.22 12 17 C16.62 17 21.24 17 26 17 C26 20.3 26 23.6 26 27 C21.38 27 16.76 27 12 27 C12.11803733 33.22979015 12.24227028 39.45941374 12.37231445 45.68896484 C12.41569752 47.80937313 12.45737007 49.92981712 12.49731445 52.05029297 C12.55493543 55.09353408 12.61865325 58.1365949 12.68359375 61.1796875 C12.70030624 62.13181122 12.71701874 63.08393494 12.73423767 64.06491089 C12.75418289 64.94567291 12.77412811 65.82643494 12.79467773 66.73388672 C12.81799416 67.89970779 12.81799416 67.89970779 12.84178162 69.08908081 C12.88783251 71.08556935 12.88783251 71.08556935 14 73 C16.80980673 73.69227032 16.80980673 73.69227032 20.0625 74.125 C21.16722656 74.29257812 22.27195312 74.46015625 23.41015625 74.6328125 C24.26480469 74.75398437 25.11945313 74.87515625 26 75 C26 76.65 26 78.3 26 80 C26.66 80 27.32 80 28 80 C28 81.98 28 83.96 28 86 C22.86424619 88.5678769 14.62383081 87.86829083 9.296875 86.10546875 C7.125 85 7.125 85 4 83 C4 82.01 4 81.02 4 80 C3.01 79.67 2.02 79.34 1 79 C-0.23080509 76.53838983 -0.12043977 74.93503007 -0.11352539 72.18310547 C-0.11344986 71.18221893 -0.11337433 70.1813324 -0.11329651 69.15011597 C-0.10813522 68.06674957 -0.10297394 66.98338318 -0.09765625 65.8671875 C-0.0962413 64.76021515 -0.09482635 63.6532428 -0.09336853 62.51272583 C-0.08775772 58.96679007 -0.07520337 55.42091677 -0.0625 51.875 C-0.05748639 49.47526133 -0.05292325 47.07552167 -0.04882812 44.67578125 C-0.03778478 38.78382999 -0.02051286 32.8919256 0 27 C-3.63 27 -7.26 27 -11 27 C-11 23.7 -11 20.4 -11 17 C-7.37 17 -3.74 17 0 17 C0 11.39 0 5.78 0 0 Z " fill="#7F7F7F" transform="translate(1236,872)"/>
<path d="M0 0 C4.29 0 8.58 0 13 0 C13 3.96 13 7.92 13 12 C8.71 12 4.42 12 0 12 C0 12.66 0 13.32 0 14 C-0.9075 14.350625 -1.815 14.70125 -2.75 15.0625 C-6.65705038 17.39170311 -8.43516338 19.8182684 -10 24 C-10.57683558 27.73075704 -10.60480593 31.41341453 -10.609375 35.18359375 C-10.62591125 36.23909927 -10.64244751 37.2946048 -10.65948486 38.38209534 C-10.70784237 41.73395682 -10.72930929 45.08536496 -10.75 48.4375 C-10.77816981 50.71812161 -10.80809865 52.99872222 -10.83984375 55.27929688 C-10.91359855 60.85282726 -10.96324837 66.42610777 -11 72 C-14.96 72 -18.92 72 -23 72 C-23 48.9 -23 25.8 -23 2 C-19.04 2 -15.08 2 -11 2 C-10.67 3.32 -10.34 4.64 -10 6 C-8.63875 5.01 -8.63875 5.01 -7.25 4 C-4 2 -4 2 0 2 C0 1.34 0 0.68 0 0 Z " fill="#7F7F7F" transform="translate(947,887)"/>
<path d="M0 0 C3.96 0 7.92 0 12 0 C12 23.1 12 46.2 12 70 C8.04 70 4.08 70 0 70 C0 46.9 0 23.8 0 0 Z " fill="#808080" transform="translate(823,889)"/>
<path d="M0 0 C2.98696508 3.71107783 2.50397939 6.97111439 2.0625 11.5625 C1.4025 11.5625 0.7425 11.5625 0.0625 11.5625 C-0.2675 12.5525 -0.5975 13.5425 -0.9375 14.5625 C-5.56635021 15.47011769 -8.78775191 16.05234886 -12.9375 13.5625 C-15.3099011 10.39929853 -15.25890164 7.41931974 -14.9375 3.5625 C-14.125 1.25 -14.125 1.25 -12.9375 -0.4375 C-8.21958498 -2.01013834 -4.52201224 -2.21289961 0 0 Z " fill="#818181" transform="translate(835.9375,863.4375)"/>
</svg>
