<?xml version="1.0" encoding="UTF-8"?>
<svg version="1.1" xmlns="http://www.w3.org/2000/svg" width="470" height="468">
<path d="M0 0 C155.1 0 310.2 0 470 0 C470 154.44 470 308.88 470 468 C314.9 468 159.8 468 0 468 C0 313.56 0 159.12 0 0 Z " fill="#FEBB02" transform="translate(0,0)"/>
<path d="M0 0 C73.59 0 147.18 0 223 0 C223 73.59 223 147.18 223 223 C149.41 223 75.82 223 0 223 C0 149.41 0 75.82 0 0 Z " fill="#82BD01" transform="translate(247,1)"/>
<path d="M0 0 C73.59 0 147.18 0 223 0 C223 73.59 223 147.18 223 223 C149.41 223 75.82 223 0 223 C0 149.41 0 75.82 0 0 Z " fill="#F35220" transform="translate(2,1)"/>
<path d="M0 0 C73.59 0 147.18 0 223 0 C223 73.26 223 146.52 223 222 C149.41 222 75.82 222 0 222 C0 148.74 0 75.48 0 0 Z " fill="#00A8F0" transform="translate(2,246)"/>
<path d="M0 0 C155.1 0 310.2 0 470 0 C470 0.33 470 0.66 470 1 C396.41 1 322.82 1 247 1 C247 74.59 247 148.18 247 224 C320.59 224 394.18 224 470 224 C470 231.26 470 238.52 470 246 C396.41 246 322.82 246 247 246 C247 319.26 247 392.52 247 468 C239.74 468 232.48 468 225 468 C225 394.74 225 321.48 225 246 C151.41 246 77.82 246 2 246 C2 319.26 2 392.52 2 468 C1.34 468 0.68 468 0 468 C0 313.56 0 159.12 0 0 Z M2 1 C2 74.59 2 148.18 2 224 C75.59 224 149.18 224 225 224 C225 150.41 225 76.82 225 1 C151.41 1 77.82 1 2 1 Z " fill="#F2F2F1" transform="translate(0,0)"/>
</svg>
